<svg width="1421" height="555" viewBox="0 0 1421 555" fill="none" xmlns="http://www.w3.org/2000/svg">
<path d="M600.489 2.61792C576.473 2.64633 553.448 12.2974 536.466 29.4541C519.484 46.6108 509.931 69.8721 509.903 94.1353V463.476C509.903 487.75 519.448 511.029 536.437 528.193C553.426 545.357 576.469 555 600.495 555C624.522 555 647.564 545.357 664.553 528.193C681.543 511.029 691.087 487.75 691.087 463.476V94.1353C691.059 69.8699 681.505 46.6067 664.52 29.4497C647.535 12.2926 624.507 2.64299 600.489 2.61792V2.61792Z" fill="#ECF2FF"/>
<path d="M820.495 227.759C796.48 227.788 773.456 237.384 756.475 254.444C739.493 271.503 729.941 294.633 729.913 318.759V462.126C730.111 486.132 739.743 509.087 756.711 525.992C773.678 542.897 796.608 552.382 820.505 552.382C844.402 552.382 867.331 542.897 884.298 525.992C901.266 509.087 910.898 486.132 911.097 462.126V318.759C911.068 294.63 901.513 271.497 884.528 254.437C867.542 237.377 844.514 227.783 820.495 227.759V227.759Z" fill="#ECF2FF"/>
<path d="M1394.5 398.532L1327.26 330.478C1309.18 312.181 1299.02 287.364 1299.02 261.488C1299.02 235.612 1309.18 210.796 1327.26 192.498L1362.84 156.495C1379.83 139.303 1389.37 115.986 1389.37 91.6726C1389.37 67.3596 1379.83 44.0423 1362.84 26.8503C1345.86 9.65836 1322.82 0 1298.8 0C1274.77 0 1251.73 9.65836 1234.75 26.8503L1131.02 131.831V93.494C1131.02 69.1887 1121.48 45.879 1104.5 28.6926C1087.52 11.5062 1064.49 1.85101 1040.47 1.85101C1016.46 1.85101 993.424 11.5062 976.443 28.6926C959.462 45.879 949.922 69.1887 949.922 93.494V463.342C949.922 487.647 959.462 510.957 976.443 528.143C993.424 545.329 1016.46 554.985 1040.47 554.985C1064.49 554.985 1087.52 545.329 1104.5 528.143C1121.48 510.957 1131.02 487.647 1131.02 463.342V391.145L1266.38 528.145C1274.79 536.658 1284.78 543.411 1295.76 548.018C1306.75 552.626 1318.53 554.999 1330.42 555C1342.31 555.001 1354.09 552.632 1365.08 548.027C1376.07 543.422 1386.05 536.671 1394.47 528.161C1402.88 519.65 1409.55 509.547 1414.1 498.426C1418.65 487.306 1421 475.387 1421 463.35C1421 451.313 1418.66 439.393 1414.11 428.272C1409.56 417.15 1402.89 407.045 1394.48 398.532H1394.5Z" fill="#ECF2FF"/>
<path d="M380.5 0C356.492 0.0251132 333.474 9.68953 316.497 26.8725C299.52 44.0554 289.972 67.3533 289.947 91.6536V163.847L154.586 26.8409C137.6 9.65398 114.563 0.000818699 90.5453 0.00496991C66.5271 0.00912112 43.4942 9.67026 26.5137 26.863C9.53313 44.0558 -0.00410005 67.3718 1.32226e-06 91.6819C0.00410269 115.992 9.54921 139.305 26.5355 156.492L93.7693 224.549C102.721 233.609 109.823 244.365 114.667 256.203C119.512 268.041 122.006 280.729 122.006 293.542C122.006 306.355 119.512 319.043 114.667 330.881C109.823 342.719 102.721 353.475 93.7693 362.535L58.1967 398.54C49.7879 407.05 43.1176 417.153 38.5665 428.273C34.0155 439.392 31.6727 451.31 31.6721 463.345C31.6716 475.381 34.0131 487.299 38.5632 498.419C43.1132 509.538 49.7825 519.642 58.1904 528.153C66.5983 536.664 76.5801 543.415 87.5659 548.022C98.5517 552.628 110.326 554.999 122.217 555C134.109 555.001 145.883 552.631 156.87 548.025C167.856 543.42 177.838 536.67 186.247 528.159L289.972 423.174V461.519C289.972 485.827 299.512 509.139 316.494 526.328C333.476 543.516 356.509 553.172 380.525 553.172C404.541 553.172 427.574 543.516 444.556 526.328C461.538 509.139 471.078 485.827 471.078 461.519V91.6536C471.052 67.3494 461.5 44.0487 444.518 26.8654C427.536 9.68208 404.513 0.020088 380.5 0V0Z" fill="#ECF2FF"/>
<ellipse cx="820.035" cy="92.5" rx="91.7729" ry="92.5" fill="#ECF2FF"/>
</svg>
