<svg xmlns="http://www.w3.org/2000/svg" viewBox="0 0 64 80" x="0px" y="0px"><path d="M52.6543,44.22852c-.39789.91809-1.95276,2.07879-.80573,3.00488,1.30591.78558,1.91681-1.1742,2.52551-1.98334A1.00025,1.00025,0,0,0,52.6543,44.22852Z"/><path d="M54.9043,42.08105c1.45355.45063,1.58258-1.59191,1.981-2.52923a1.00015,1.00015,0,0,0-.66656-1.24713c-1.43726-.33338-1.39465,1.59973-1.87793,2.47845A1.00079,1.00079,0,0,0,54.9043,42.08105Z"/><path d="M52.45605,15.95215a1.00025,1.00025,0,0,0-1.5722,1.23639c.66272.62585.948,1.92846,1.95886,2.002a1.00657,1.00657,0,0,0,.83258-1.55285C53.29541,17.06543,52.88525,16.49805,52.45605,15.95215Z"/><path d="M57.76758,35.49121c.02374-1.012.76355-2.9267-.75043-3.12408-1.47034.0321-.976,1.88665-1.23205,2.85644A1.00034,1.00034,0,0,0,57.76758,35.49121Z"/><path d="M55.59277,27.5752c.31226.93774-.10766,2.71868,1.26947,2.79589a1.0018,1.0018,0,0,0,.99567-1.10449c-.21478-.99066.05023-3.02447-1.46429-2.85748A1.00106,1.00106,0,0,0,55.59277,27.5752Z"/><path d="M54.58936,23.876a1.001,1.001,0,0,0,1.27978.60156c1.39325-.62488.13446-2.24-.18011-3.20606a1.00006,1.00006,0,0,0-1.82129.82618C54.13037,22.67676,54.37305,23.27539,54.58936,23.876Z"/><path d="M21.68457,10.22168a21.519,21.519,0,0,0,2.19049-.81049,1.001,1.001,0,0,0,.60248-1.28033c-.62628-1.392-2.23834-.13593-3.20654.17963A1.004,1.004,0,0,0,21.68457,10.22168Z"/><path d="M16.57031,13.33008c.84278-.11237,1.42334-.95551,2.17389-1.33875a1.00011,1.00011,0,0,0,.27875-1.38684c-.93726-1.20477-2.21155.40729-3.0708.93939A1.0062,1.0062,0,0,0,16.57031,13.33008Z"/><path d="M27.39111,8.42383c.98053-.29859,3.03327.11358,2.9737-1.39154-.27411-1.5033-2.1482-.66406-3.15576-.59192A1.0021,1.0021,0,0,0,27.39111,8.42383Z"/><path d="M33.312,8.03613c.68384.02863,1.36872.11823,2.04639.1875a1.00107,1.00107,0,0,0,.13135-1.99121c-1.01648-.02325-2.92-.7633-3.12256.75092A1.00035,1.00035,0,0,0,33.312,8.03613Z"/><path d="M38.97168,9.02832c.7326.17493,1.4353.57813,2.17871.70026A1.00343,1.00343,0,0,0,41.517,7.79785c-.98737-.26916-2.65717-1.43811-3.21185-.01666A1.00007,1.00007,0,0,0,38.97168,9.02832Z"/><path d="M44.229,11.3457c.75055.34211,1.36463,1.11164,2.18647,1.22864a1.00639,1.00639,0,0,0,.57861-1.81653c-.88788-.49231-2.23779-2.03192-3.11469-.78326A1.00088,1.00088,0,0,0,44.229,11.3457Z"/><path d="M9.41064,40.124a.99566.99566,0,0,0-1.27978-.60156c-1.39319.62494-.13446,2.24.18011,3.20606a1.00018,1.00018,0,0,0,1.82135-.82624C9.86963,41.32324,9.627,40.72461,9.41064,40.124Z"/><path d="M8.40723,36.4248c-.1167-.62792-.20948-1.2666-.27588-1.90039a1.00019,1.00019,0,0,0-1.98926.209c.22748.95965-.07648,2.78784,1.2807,2.87408A1.00338,1.00338,0,0,0,8.40723,36.4248Z"/><path d="M9.0957,21.919a1.00127,1.00127,0,0,0-1.29687.56347c-.266.97876-1.44086,2.66016-.01764,3.21289,1.42767.34052,1.3996-1.60284,1.87805-2.47851A1.00083,1.00083,0,0,0,9.0957,21.919Z"/><path d="M10.48486,20.26074c1.043-.0683,1.27033-1.439,1.90638-2.10052a1.00055,1.00055,0,0,0-.23987-1.39362c-1.31067-.78418-1.91431,1.17359-2.52539,1.98334A1.00622,1.00622,0,0,0,10.48486,20.26074Z"/><path d="M6.23242,28.50879c-.03235,1.01837-.76593,3.00128.80518,3.125,1.42163-.08386.91516-1.90283,1.1773-2.85742A1.00034,1.00034,0,0,0,6.23242,28.50879Z"/><path d="M13.11621,46.81146c-.71936-.70929-1.23132-2.56878-2.51074-1.835-1.20392.9408.39783,2.20148.93848,3.07135A1.00027,1.00027,0,0,0,13.11621,46.81146Z"/><path d="M41.90283,53.86719c-.85534.52795-2.78863.58416-2.38037,2.00189.63446,1.3952,2.23554.13385,3.20654-.17957A1.00054,1.00054,0,0,0,41.90283,53.86719Z"/><path d="M36.4248,55.59277c-.94689.30567-2.85095-.09753-2.78955,1.37494a1.00051,1.00051,0,0,0,.99317.89557c1.02228-.21313,3.11682.07684,2.96246-1.46966A1.00293,1.00293,0,0,0,36.4248,55.59277Z"/><path d="M25.02832,54.97168c-.60644-.18359-1.21631-.39648-1.813-.63086a1.00022,1.00022,0,0,0-.73236,1.86133,12.79271,12.79271,0,0,0,2.25531.72662A1.00291,1.00291,0,0,0,25.02832,54.97168Z"/><path d="M30.688,55.96387c-.6377-.03418-1.28125-.09375-1.91211-.17871a1.00018,1.00018,0,0,0-.26557,1.98242c.70118.09234,1.41614.16321,2.12494.19531A1.00073,1.00073,0,0,0,30.688,55.96387Z"/><path d="M19.771,52.6543c-.92225-.39875-2.07587-1.95307-3.00342-.8067a1.0001,1.0001,0,0,0,.23828,1.39459,7.13569,7.13569,0,0,0,2.25384,1.27258A1.00614,1.00614,0,0,0,19.771,52.6543Z"/><path d="M46.8125,50.88379c-.70013.71033-2.5733,1.23425-1.83545,2.51172.94391,1.205,2.20905-.40808,3.0708-.93939A1,1,0,0,0,46.8125,50.88379Z"/><path d="M62,8a5.997,5.997,0,1,0-10.88513,3.47107L46.8252,15.76074c-8.01459-7.62433-21.638-7.62231-29.6504,0l-4.28967-4.28967A5.99695,5.99695,0,1,0,2,8a6.0251,6.0251,0,0,0,9.47107,4.88513l4.28967,4.28967c-7.62427,8.01459-7.62231,21.638,0,29.6504l-4.28967,4.28967A5.99694,5.99694,0,1,0,8,62a6.02506,6.02506,0,0,0,4.88513-9.47107l4.28967-4.28967c8.01459,7.62427,21.63807,7.62231,29.6504,0l4.28967,4.28967a5.997,5.997,0,1,0,1.41406-1.41406L48.23926,46.8252c7.62433-8.01459,7.62231-21.63807,0-29.6504l4.28967-4.28967A6.025,6.025,0,0,0,62,8ZM8,12a4.00016,4.00016,0,0,1,.00012-8A4.00016,4.00016,0,0,1,8,12ZM8,60a4.00016,4.00016,0,0,1,.00012-8A4.00016,4.00016,0,0,1,8,60Zm48-8a4.00016,4.00016,0,0,1-.00006,8A4.00016,4.00016,0,0,1,56,52Zm-25-.05066a19.8879,19.8879,0,0,1-12.11395-4.88513C22.20642,41.39471,31,43.80182,31,50.37512ZM20.0542,37.37891c.17773-5.8368,8.671-5.8252,8.85791.00006A4.42914,4.42914,0,0,1,20.0542,37.37891ZM32,46.37982a8.56382,8.56382,0,0,0-3.88885-3.69861,6.44715,6.44715,0,0,0-2.2212-11.571,6.53726,6.53726,0,0,1,12.2201,0,6.44712,6.44712,0,0,0-2.22113,11.571A8.56422,8.56422,0,0,0,32,46.37982ZM27.5708,20.42871a4.42938,4.42938,0,0,1,8.8584.00006A4.42938,4.42938,0,0,1,27.5708,20.42871ZM39.25739,32.97644c6.01922-.147,6.29657,8.59039.25964,8.83118A4.42033,4.42033,0,0,1,39.25739,32.97644ZM33,51.94934V50.375a6.54885,6.54885,0,0,1,12.14368-3.33783A19.88782,19.88782,0,0,1,33,51.94934ZM52,32a19.90508,19.90508,0,0,1-5.41705,13.64331,8.46874,8.46874,0,0,0-3.43726-2.96252A6.447,6.447,0,0,0,40.173,30.98346a8.5043,8.5043,0,0,0-4.49511-5.289,6.42558,6.42558,0,1,0-7.35584,0,8.5043,8.5043,0,0,0-4.49511,5.289,6.44687,6.44687,0,0,0-2.97724,11.69391,8.44955,8.44955,0,0,0-3.43719,2.961C5.51245,33.12958,14.57538,11.94818,32.00031,12.00012A20.02236,20.02236,0,0,1,52,32Zm4-20a4.00016,4.00016,0,0,1,.00012-8A4.00016,4.00016,0,0,1,56,12Z"/><text x="0" y="79" fill="#000000" font-size="5px" font-weight="bold" font-family="'Helvetica Neue', Helvetica, Arial-Unicode, Arial, Sans-serif"></text><text x="0" y="84" fill="#000000" font-size="5px" font-weight="bold" font-family="'Helvetica Neue', Helvetica, Arial-Unicode, Arial, Sans-serif">from the Noun Project</text></svg>